<svg width="204" height="204" viewBox="0 0 204 204" fill="none" xmlns="http://www.w3.org/2000/svg">
<circle cx="102" cy="102" r="99.5" fill="#F5F8FA" stroke="#DBE9EA" stroke-width="5"/>
<path d="M139.274 144.703V135.207C139.274 130.17 137.309 125.34 133.81 121.779C130.312 118.217 125.567 116.216 120.619 116.216H83.3097C78.3621 116.216 73.6171 118.217 70.1187 121.779C66.6202 125.34 64.6548 130.17 64.6548 135.207V144.703M120.619 78.2342C120.619 88.7227 112.267 97.2252 101.965 97.2252C91.6617 97.2252 83.3097 88.7227 83.3097 78.2342C83.3097 67.7458 91.6617 59.2433 101.965 59.2433C112.267 59.2433 120.619 67.7458 120.619 78.2342Z" stroke="#8B8B8B" stroke-width="4" stroke-linecap="round" stroke-linejoin="round"/>
</svg>
