<svg width="50" height="50" viewBox="0 0 50 50" fill="none" xmlns="http://www.w3.org/2000/svg">
<circle cx="25" cy="25" r="22.5" fill="#F5F8FA" stroke="#DBE9EA" stroke-width="5"/>
<g filter="url(#filter0_d_55_35)">
<path d="M33 34V32C33 30.9391 32.5786 29.9217 31.8284 29.1716C31.0783 28.4214 30.0609 28 29 28H21C19.9391 28 18.9217 28.4214 18.1716 29.1716C17.4214 29.9217 17 30.9391 17 32V34M29 20C29 22.2091 27.2091 24 25 24C22.7909 24 21 22.2091 21 20C21 17.7909 22.7909 16 25 16C27.2091 16 29 17.7909 29 20Z" stroke="#8B8B8B" stroke-width="2.5" stroke-linecap="round" stroke-linejoin="round"/>
</g>
<defs>
<filter id="filter0_d_55_35" x="9" y="13" width="32" height="32" filterUnits="userSpaceOnUse" color-interpolation-filters="sRGB">
<feFlood flood-opacity="0" result="BackgroundImageFix"/>
<feColorMatrix in="SourceAlpha" type="matrix" values="0 0 0 0 0 0 0 0 0 0 0 0 0 0 0 0 0 0 127 0" result="hardAlpha"/>
<feOffset dy="4"/>
<feGaussianBlur stdDeviation="2"/>
<feComposite in2="hardAlpha" operator="out"/>
<feColorMatrix type="matrix" values="0 0 0 0 0 0 0 0 0 0 0 0 0 0 0 0 0 0 0.25 0"/>
<feBlend mode="normal" in2="BackgroundImageFix" result="effect1_dropShadow_55_35"/>
<feBlend mode="normal" in="SourceGraphic" in2="effect1_dropShadow_55_35" result="shape"/>
</filter>
</defs>
</svg>
